<?xml version="1.0"?>
<svg xmlns="http://www.w3.org/2000/svg" id="Layer_1_1_" enable-background="new 0 0 64 64" height="512px" viewBox="0 0 64 64" width="512px"><g><path d="m54.65 34.855c-.888-3.223-3.455-5.696-6.65-6.532v-10.323c0-8.822-7.178-16-16-16s-16 7.178-16 16v20c-.552 0-1 .447-1 1v5c0 .553.448 1 1 1v6h-3c-.552 0-1 .447-1 1v3h-5c-.552 0-1 .447-1 1v5c0 .553.448 1 1 1h24c.552 0 1-.447 1-1v-5c0-.553-.448-1-1-1h-5v-3c0-.553-.448-1-1-1h-3v-6c.552 0 1-.447 1-1v-5c0-.553-.448-1-1-1v-20c0-5.514 4.486-10 10-10s10 4.486 10 10v10.324c-3.195.835-5.763 3.309-6.65 6.532-.18.652-.289 1.326-.323 2.004l-.917 17.988c-.042.816.257 1.625.821 2.219.301.317.67.555 1.07.714v1.719c0 1.379 1.122 2.5 2.5 2.5s2.5-1.121 2.5-2.5v-1.5h8v1.5c0 1.379 1.122 2.5 2.5 2.5s2.5-1.121 2.5-2.5v-1.719c.401-.159.769-.397 1.07-.714.563-.594.863-1.402.821-2.219l-.917-17.988c-.036-.678-.144-1.352-.325-2.005zm-10.147 6.105c.164.026.329.04.492.04.711 0 1.401-.249 1.947-.714.673-.571 1.058-1.404 1.058-2.286v-1.64c.632.716 1 1.649 1 2.64 0 2.206-1.794 4-4 4s-4-1.794-4-4c0-.991.368-1.924 1-2.64v1.533c0 1.515 1.076 2.835 2.503 3.067zm-14.503 19.04h-22v-3h22zm-6-5h-10v-2h10zm-6-4v-7c0-.553-.448-1-1-1v-3h4v3c-.552 0-1 .447-1 1v7zm14-45c-6.617 0-12 5.383-12 12v20h-2v-20c0-7.72 6.28-14 14-14s14 6.28 14 14v20c0 .294-.128.572-.353.763-.228.192-.52.272-.822.223-.463-.076-.825-.555-.825-1.093v-19.893c0-6.617-5.383-12-12-12zm5.023 30.961c.027-.532.113-1.062.254-1.574.651-2.362 2.447-4.218 4.723-4.99v3.426c-1.838 1.065-3 3.025-3 5.178 0 3.309 2.691 6 6 6s6-2.691 6-6c0-2.153-1.162-4.113-3-5.178v-3.426c2.275.772 4.072 2.628 4.723 4.99.141.513.227 1.042.254 1.574l.917 17.988c.014.276-.083.539-.273.739-.191.202-.449.312-.725.312h-15.792c-.277 0-.534-.11-.725-.312-.19-.2-.288-.463-.273-.739zm1.977 22.539c0 .275-.224.5-.5.5s-.5-.225-.5-.5v-1.5h1zm12.5.5c-.276 0-.5-.225-.5-.5v-1.5h1v1.5c0 .275-.224.5-.5.5z" data-original="#000000" class="active-path" data-old_color="#000000" fill="#021F42"/><path d="m45 54c1.654 0 3-1.346 3-3s-1.346-3-3-3-3 1.346-3 3 1.346 3 3 3zm0-4c.551 0 1 .448 1 1s-.449 1-1 1-1-.448-1-1 .449-1 1-1z" data-original="#000000" class="active-path" data-old_color="#000000" fill="#021F42"/></g> </svg>
