<?xml version="1.0"?>
<svg xmlns="http://www.w3.org/2000/svg" viewBox="0 0 64 64" width="512px" height="512px"><g><g id="outline"><rect x="10" y="21" width="2" height="2" data-original="#000000" class="active-path" data-old_color="#000000" fill="#021F42"/><rect x="14" y="21" width="2" height="2" data-original="#000000" class="active-path" data-old_color="#000000" fill="#021F42"/><rect x="20" y="56" width="2" height="2" data-original="#000000" class="active-path" data-old_color="#000000" fill="#021F42"/><rect x="20" y="52" width="2" height="2" data-original="#000000" class="active-path" data-old_color="#000000" fill="#021F42"/><path d="M43,33h3a3.973,3.973,0,0,0,2.239-.688A3.993,3.993,0,0,0,52,35h3a1,1,0,0,0,1-1V33a3.974,3.974,0,0,0-1.382-3A3.974,3.974,0,0,0,56,27V26a1,1,0,0,0-1-1H52a3.973,3.973,0,0,0-2.239.688A3.993,3.993,0,0,0,46,23H43a1,1,0,0,0-1,1v1a3.974,3.974,0,0,0,1.382,3A3.974,3.974,0,0,0,42,31v1A1,1,0,0,0,43,33Zm9-6h2a2,2,0,0,1-2,2H50A2,2,0,0,1,52,27Zm0,4a2,2,0,0,1,2,2H52a2,2,0,0,1-2-2Zm-6-6a2,2,0,0,1,2,2H46a2,2,0,0,1-2-2Zm0,4h2a2,2,0,0,1-2,2H44A2,2,0,0,1,46,29Z" data-original="#000000" class="active-path" data-old_color="#000000" fill="#021F42"/><path d="M32,12v5h2V13h3V11H33A1,1,0,0,0,32,12Z" data-original="#000000" class="active-path" data-old_color="#000000" fill="#021F42"/><rect x="39" y="11" width="2" height="2" data-original="#000000" class="active-path" data-old_color="#000000" fill="#021F42"/><rect x="43" y="11" width="2" height="2" data-original="#000000" class="active-path" data-old_color="#000000" fill="#021F42"/><path d="M56,57V53H54v3H52v2h3A1,1,0,0,0,56,57Z" data-original="#000000" class="active-path" data-old_color="#000000" fill="#021F42"/><path d="M58.414,17l1.293-1.293a3.829,3.829,0,0,0,0-5.414,3.923,3.923,0,0,0-5.414,0L52.586,12H52V10a3,3,0,0,0-3-3H31a3,3,0,0,0-3,3v8.56l-.324-.3A1,1,0,0,0,27,18H22V16h1a1,1,0,0,0,1-1V11a1,1,0,0,0-1-1H22V3a1,1,0,0,0-1-1H9A1,1,0,0,0,8,3v7H7a1,1,0,0,0-1,1v4a1,1,0,0,0,1,1H8v2.586L5.293,21.293A1,1,0,0,0,5,21.941l-2,34a1,1,0,0,0,.291.766l5,5A1,1,0,0,0,9,62H59a1,1,0,0,0,1-1V19a1,1,0,0,0-.293-.707ZM10,4h2V8h2V4h2V8h2V4h2v6H10ZM8,12H22v2H8Zm8,48H9.414l-4.39-4.39L6.976,22.438l2.731-2.731A1,1,0,0,0,10,19V16H20v3a1,1,0,0,0,1,1h5.611L38,30.439V35H36V32a1,1,0,0,0-.293-.707l-9-9A1,1,0,0,0,26,22H22a3,3,0,0,0,0,6h1.586L30,34.414V35H27.414l-4.707-4.707A1,1,0,0,0,22,30H21a4,4,0,0,1-4-4,1,1,0,0,0-1-1H10a1,1,0,0,0-1,.929l-2,28a1,1,0,0,0,.291.778l3,3A1,1,0,0,0,11,58h5Zm2-19V37h2v2h2V37h2v2h2V37h2v2h2V37h2v2h2V37h2v2h2V37h2v4Zm20,2v2H20V43Zm-6.293-9.707L30,31.586V28.414l4,4V35H32V34A1,1,0,0,0,31.707,33.293ZM28,29.586l-3.293-3.293A1,1,0,0,0,24,26H22a1,1,0,0,1,0-2h3.586L28,26.414ZM16,46V56H11.414L9.03,53.616,10.931,27h4.152A6.01,6.01,0,0,0,21,32h.586l3,3H17a1,1,0,0,0-1,1v6a1,1,0,0,0,1,1h1v2H17A1,1,0,0,0,16,46ZM40,56H26V51H40Zm0-7H25a1,1,0,0,0-1,1v7a1,1,0,0,0,1,1H40v2H18V47H40ZM58,60H42V51H58Zm0-11H42V47H58Zm0-4H40V43H58Zm0-4H42V39H58Zm0-4H42V36a1,1,0,0,0-1-1H40V30a1,1,0,0,0-.324-.737L30.662,21H58ZM56.293,16.293a1,1,0,0,0,0,1.414L57.586,19H30V10a1,1,0,0,1,1-1H49a1,1,0,0,1,1,1v3a1,1,0,0,0,1,1h2a1,1,0,0,0,.707-.293l2-2a1.829,1.829,0,0,1,2.586,2.586Z" data-original="#000000" class="active-path" data-old_color="#000000" fill="#021F42"/></g></g> </svg>
