<?xml version="1.0"?>
<svg xmlns="http://www.w3.org/2000/svg" id="Layer_1" data-name="Layer 1" viewBox="0 0 512 512" width="512px" height="512px" class=""><g><path d="M442.129,338H69.871C65.452,338,62,341.919,62,346.337V471.1a7.8,7.8,0,0,0,7.871,7.9H223.13a7.953,7.953,0,0,0,6.349-3.081L256,441.355l26.521,34.551A7.96,7.96,0,0,0,288.869,479h153.26A7.8,7.8,0,0,0,450,471.1V346.337C450,341.919,446.548,338,442.129,338ZM434,463H292.816l-30.467-39.686a8.051,8.051,0,0,0-12.7-.013L219.184,463H78V387H434Zm0-92H78V354H434Z" data-original="#000000" class="active-path" data-old_color="#000000" fill="#021F42"/><path d="M444.209,252H436.7a199.726,199.726,0,0,0-38.612-112.595c-23.616-31.883-56.373-55.286-92.686-66.178l-5.182-33.458A7.993,7.993,0,0,0,292.315,33h-72.63a7.955,7.955,0,0,0-7.906,6.725L206.6,73.166c-36.3,10.893-69.056,34.427-92.691,66.411A200.061,200.061,0,0,0,75.308,252H67.791A7.532,7.532,0,0,0,60,259.65v49.656A7.568,7.568,0,0,0,67.791,317H444.209A7.568,7.568,0,0,0,452,309.306V259.65A7.532,7.532,0,0,0,444.209,252ZM126.773,149.073c22.579-30.555,54.185-52.565,89-61.815a7.99,7.99,0,0,0,5.851-6.5L226.541,49h58.918l4.919,31.714a7.969,7.969,0,0,0,5.851,6.482c34.835,9.257,66.444,31.289,89,61.745A182.478,182.478,0,0,1,420.7,252H91.314C92.612,215,105.083,178.427,126.773,149.073ZM436,301H76V268H436Z" data-original="#000000" class="active-path" data-old_color="#000000" fill="#021F42"/></g> </svg>
